<?xml version="1.0" standalone="no"?>
<!DOCTYPE svg PUBLIC "-//W3C//DTD SVG 20010904//EN"
 "http://www.w3.org/TR/2001/REC-SVG-20010904/DTD/svg10.dtd">
<svg version="1.0" xmlns="http://www.w3.org/2000/svg"
 width="640.000000pt" height="1280.000000pt" viewBox="0 0 640.000000 1280.000000"
 preserveAspectRatio="xMidYMid meet">
<metadata>
Created by potrace 1.15, written by Peter Selinger 2001-2017
</metadata>
<g transform="translate(0.000000,1280.000000) scale(0.100000,-0.100000)"
fill="#e91e63" stroke="none">
<path d="M3278 12793 c-44 -4 -48 -6 -63 -46 -24 -66 -32 -194 -27 -453 l5
-242 -111 -56 c-275 -141 -504 -312 -718 -536 -141 -148 -264 -330 -374 -555
-132 -267 -200 -497 -255 -862 -6 -40 -9 -43 -43 -48 -245 -39 -388 -95 -484
-190 -60 -59 -64 -75 -22 -75 29 0 72 20 134 64 60 42 88 54 163 65 74 12 185
1 198 -20 39 -60 89 -323 89 -462 -1 -55 -4 -64 -26 -80 -18 -14 -34 -17 -62
-12 -24 4 -72 -2 -132 -16 -104 -23 -224 -29 -254 -12 -19 10 -18 12 10 38 38
36 101 65 142 65 39 0 43 20 5 21 -17 1 -21 3 -10 6 26 7 21 23 -8 23 -14 0
-25 5 -25 10 0 18 -38 10 -119 -25 -134 -59 -143 -43 -24 42 35 25 62 47 59
50 -5 6 -73 -29 -141 -73 -30 -18 -57 -34 -60 -34 -3 0 -5 10 -5 23 0 13 13
34 32 50 31 26 31 28 8 21 -14 -4 -45 -22 -69 -40 -40 -31 -71 -43 -71 -28 0
10 66 97 89 118 24 22 27 36 7 36 -7 0 -19 7 -26 15 -11 13 -8 23 19 59 37 53
40 76 8 76 -30 0 -74 -33 -126 -95 -23 -27 -60 -66 -81 -85 -35 -31 -46 -55
-109 -230 -38 -107 -92 -242 -120 -299 -41 -83 -51 -115 -51 -155 0 -41 -7
-62 -35 -106 -37 -58 -44 -102 -21 -135 7 -11 30 -64 50 -118 20 -54 45 -116
56 -137 25 -49 25 -46 -7 -53 -41 -9 -98 -60 -122 -112 -32 -69 -28 -123 16
-204 l37 -68 -11 -79 c-12 -86 -10 -93 38 -154 31 -38 59 -109 59 -147 0 -34
28 -79 57 -92 13 -6 43 -14 66 -17 73 -10 105 -24 111 -47 4 -12 13 -75 20
-139 17 -135 34 -180 101 -262 26 -33 54 -71 61 -85 35 -66 1 -185 -65 -229
-22 -14 -45 -44 -62 -80 -38 -78 -118 -167 -284 -315 -153 -137 -242 -226
-328 -329 -136 -164 -144 -256 -48 -600 27 -95 51 -194 55 -219 6 -40 26 -72
126 -205 66 -87 120 -161 120 -164 0 -4 41 -37 91 -74 98 -73 181 -167 226
-252 15 -30 36 -57 47 -60 10 -3 36 -22 58 -42 l40 -36 -7 -64 c-8 -75 -28
-135 -83 -252 -22 -47 -57 -141 -77 -210 -49 -168 -47 -215 16 -325 56 -97 69
-134 69 -193 0 -30 10 -64 30 -104 34 -67 36 -95 14 -204 -10 -47 -14 -96 -10
-124 9 -71 -8 -141 -73 -285 -33 -72 -64 -151 -71 -174 -20 -77 -90 -502 -126
-766 -19 -143 -44 -316 -55 -384 -23 -138 -21 -145 37 -129 69 18 68 -13 -1
-132 -59 -101 -86 -163 -94 -218 -5 -38 -10 -47 -31 -52 -24 -6 -35 -22 -59
-82 l-11 -28 -152 0 c-84 0 -170 -3 -191 -6 l-37 -7 0 -187 0 -188 103 -6 c94
-5 657 -20 1742 -46 242 -6 1000 -15 1685 -21 685 -5 1376 -14 1535 -19 l290
-8 100 -36 c96 -34 158 -44 180 -28 17 12 1 398 -18 445 l-16 37 -233 -2
c-128 -1 -472 2 -765 6 l-531 8 -7 46 c-7 50 -69 228 -86 248 -15 18 -108 60
-174 78 -33 9 -127 31 -210 50 -82 19 -176 44 -208 56 -77 29 -192 107 -250
169 -47 50 -47 51 -47 119 0 48 -6 84 -20 115 -21 48 -50 240 -69 464 -7 82
-18 137 -32 169 -45 104 -66 401 -34 464 14 27 14 34 0 66 -20 49 -19 79 7
181 19 77 20 96 11 162 -21 141 -5 150 207 122 157 -22 235 -26 288 -15 l30 6
-2 139 c0 76 -3 139 -6 139 -8 0 -60 50 -60 58 0 4 10 12 23 17 16 7 23 20 25
48 5 53 27 63 175 77 156 14 223 8 231 -23 3 -12 6 -89 6 -172 0 -82 3 -167 6
-187 6 -35 9 -38 53 -45 73 -13 361 -9 406 4 81 25 80 21 75 199 -7 278 0 374
30 374 24 0 213 76 320 129 382 189 682 478 987 950 86 133 93 147 93 194 0
31 6 57 15 67 8 9 20 43 26 76 6 37 27 87 54 135 59 103 74 160 85 325 5 78
16 170 25 205 17 76 20 318 5 454 -16 134 -53 310 -105 490 -38 132 -57 179
-109 270 -35 61 -107 191 -161 290 -80 149 -106 188 -150 228 -30 26 -59 63
-66 81 -8 22 -22 37 -43 45 -38 14 -70 42 -120 106 -73 92 -120 136 -175 161
-30 13 -86 49 -125 78 -39 30 -100 68 -136 86 -36 18 -79 45 -96 61 -17 17
-65 43 -107 58 -94 35 -163 75 -181 104 -11 18 -12 116 -4 572 15 890 15 1551
-1 1825 -12 224 -12 248 3 284 l16 38 47 -7 c80 -12 151 -56 275 -172 65 -60
143 -124 173 -142 49 -30 57 -32 68 -19 57 72 255 339 297 401 28 43 71 120
95 170 23 51 73 156 109 233 87 186 87 198 4 279 -117 114 -393 280 -633 381
-49 21 -164 63 -255 94 l-165 55 -7 45 c-4 25 -7 135 -6 245 0 110 -3 212 -7
227 -6 25 -10 26 -98 33 -51 3 -155 2 -231 -2 l-140 -8 -8 -30 c-4 -16 -12
-113 -17 -215 -5 -102 -15 -201 -21 -221 l-12 -36 -102 -11 c-125 -15 -204
-15 -243 -2 l-30 11 5 192 c4 169 -7 329 -23 345 -6 6 -400 11 -457 5z m800
-1721 c7 -5 18 -38 26 -73 11 -54 12 -233 5 -1045 -11 -1199 -22 -1424 -71
-1424 -26 0 -148 57 -260 121 l-91 52 7 791 c3 435 9 945 13 1133 l6 342 56
25 c55 25 252 84 281 85 8 0 21 -3 28 -7z m-947 -609 c21 -27 21 -32 15 -241
-7 -261 -27 -542 -37 -542 -4 0 -36 20 -71 45 -35 25 -78 55 -97 67 l-33 21 5
131 c6 153 31 254 103 406 51 107 70 140 84 140 4 0 18 -12 31 -27z m-139
-802 c25 -16 66 -56 92 -89 l46 -60 0 -140 c0 -121 -2 -143 -18 -163 -13 -15
-25 -20 -36 -16 -24 10 -122 218 -146 311 -11 44 -20 103 -20 133 0 64 13 68
82 24z m-1772 -375 c0 -3 -4 -16 -10 -30 -14 -39 13 -47 171 -53 134 -6 139
-5 192 21 30 14 65 26 77 26 24 0 24 0 -5 -30 -44 -46 -120 -79 -220 -94 -84
-12 -88 -14 -51 -21 94 -19 215 13 281 75 25 24 40 29 94 32 61 3 64 2 71 -22
66 -224 140 -390 271 -610 105 -175 271 -377 344 -416 23 -12 35 -26 35 -39 0
-38 61 -105 184 -205 l122 -98 11 -95 c7 -58 26 -136 48 -201 l36 -106 -19
-27 c-11 -16 -40 -47 -64 -70 l-43 -42 -78 24 c-52 17 -101 25 -148 25 -67 0
-73 -2 -105 -34 -44 -44 -43 -56 6 -56 50 0 85 -17 174 -87 37 -29 78 -56 90
-59 41 -10 75 13 118 81 l41 66 31 -30 c18 -17 42 -31 54 -31 19 0 22 5 22 39
0 27 -7 49 -23 67 -22 25 -23 29 -9 56 12 26 12 36 -3 91 -32 119 -31 126 18
118 22 -3 1 32 -38 65 -53 43 -67 80 -40 101 38 27 128 9 200 -40 l36 -25 -40
-32 c-22 -18 -42 -38 -45 -46 -10 -27 14 -24 47 6 32 28 66 40 67 23 1 -5 5
-42 10 -83 6 -50 4 -154 -6 -310 -9 -158 -12 -309 -7 -463 l6 -228 -35 -37
c-43 -45 -75 -93 -162 -244 -37 -64 -87 -139 -112 -167 l-45 -51 -61 31 c-71
36 -141 59 -181 59 -25 0 -87 -24 -87 -34 0 -3 -2 -10 -5 -18 -4 -10 4 -13 36
-10 51 5 219 -19 219 -31 0 -4 -21 -18 -47 -30 -44 -20 -63 -22 -213 -21 -204
1 -273 17 -447 104 -178 89 -314 183 -409 282 -91 95 -137 160 -215 303 -78
142 -85 162 -128 335 -40 162 -94 310 -187 508 -51 108 -56 116 -70 98 -7 -11
-17 -34 -20 -52 -3 -18 -12 -38 -20 -45 -21 -17 -111 -13 -147 8 -27 16 -33
27 -38 69 -4 27 -26 90 -50 139 -39 79 -44 99 -45 160 0 58 -5 79 -28 118 -23
38 -26 50 -16 62 25 30 50 17 75 -38 26 -60 49 -78 123 -100 53 -16 61 -14 75
26 16 44 -45 121 -120 152 -41 17 -126 20 -154 5 -16 -9 -19 -7 -19 15 0 38
35 99 76 133 l37 31 48 -19 c62 -23 110 -61 184 -149 33 -38 64 -70 68 -70 16
-2 -5 64 -33 104 -16 23 -68 68 -123 105 -97 66 -115 90 -78 109 14 8 33 6 68
-4 62 -19 63 -19 63 5 0 18 -7 20 -70 20 -38 0 -70 3 -70 6 0 3 8 15 17 28
l17 22 60 -23 c34 -13 71 -28 84 -33 32 -14 30 -50 -3 -50 -33 0 -32 -11 4
-34 43 -29 79 -91 109 -189 24 -77 29 -87 47 -82 11 2 61 5 112 5 l91 0 32 78
c61 150 88 199 119 211 15 7 56 31 90 54 62 42 63 42 65 95 3 49 2 52 -18 46
-36 -11 -83 -52 -142 -123 -54 -66 -114 -121 -114 -104 0 23 67 119 139 199
44 51 81 95 81 98 0 13 -28 5 -45 -14 -19 -21 -45 -27 -45 -10 0 6 7 24 15 39
14 29 39 160 31 168 -10 10 -74 -28 -111 -67 -79 -83 -136 -91 -242 -34 -66
35 -70 36 -158 32 -64 -4 -121 -14 -197 -38 -59 -19 -111 -31 -114 -27 -11 10
36 75 124 169 78 83 115 140 133 200 6 21 4 28 -6 28 -8 0 -16 -9 -20 -19 -7
-24 -34 -35 -41 -17 -3 8 -1 31 5 52 19 68 -26 74 -54 8 -22 -54 -26 -38 -10
41 16 73 52 153 78 169 11 7 45 0 120 -26 57 -20 108 -33 113 -30 5 4 22 24
37 45 15 20 35 37 43 37 7 0 14 -2 14 -4z m-364 -361 c8 -31 -4 -65 -22 -65
-10 0 -14 13 -14 50 0 40 3 48 15 44 8 -4 18 -17 21 -29z m93 -380 c23 -23 5
-34 -37 -23 -52 14 -58 19 -37 35 20 14 51 9 74 -12z m441 -5 c0 -21 -63 -60
-76 -48 -11 12 6 45 29 56 34 16 47 14 47 -8z m-644 -35 c-5 -18 -12 -25 -24
-23 -25 5 -25 32 0 44 29 13 32 11 24 -21z m414 -4 c0 -25 13 -33 56 -34 43
-1 44 -15 3 -96 -27 -53 -35 -62 -53 -57 -11 3 -27 6 -33 6 -24 0 -13 21 17
31 32 12 33 13 24 47 -5 15 -14 22 -31 22 -14 0 -41 9 -60 21 l-34 21 38 29
c45 34 73 37 73 10z m-86 -196 c41 -14 93 -26 115 -27 23 -1 41 -5 41 -10 0
-17 -28 -63 -53 -86 -24 -23 -24 -23 -30 -3 -4 16 -13 21 -39 21 -47 1 -75 26
-103 93 -8 20 -13 37 -10 37 2 0 38 -11 79 -25z m146 -179 c0 -1 -22 -17 -50
-34 -31 -19 -50 -26 -50 -18 0 19 23 44 45 49 26 6 55 8 55 3z m-207 -728 c53
-71 79 -154 92 -293 l6 -70 -20 25 c-11 14 -29 48 -40 75 -20 48 -81 265 -81
285 0 20 19 9 43 -22z m2842 -128 c28 -15 92 -54 144 -87 l94 -59 -2 -565 c-1
-310 -6 -665 -11 -788 l-9 -224 -38 -39 c-56 -58 -170 -111 -249 -116 -35 -2
-79 -1 -98 2 l-34 7 -4 247 c-2 157 1 250 7 254 6 4 20 8 33 8 30 0 28 9 -8
39 l-31 26 11 210 c5 116 10 300 10 410 0 219 18 724 26 736 6 10 92 -23 159
-61z m-1322 5 c1 -5 -6 -11 -15 -13 -11 -2 -18 3 -18 13 0 17 30 18 33 0z
m2135 -571 c59 -50 86 -102 137 -258 30 -94 56 -154 84 -194 l39 -57 11 -145
c10 -136 3 -320 -15 -399 -17 -72 -56 -197 -64 -205 -5 -5 -20 -6 -35 -2 -24
6 -26 10 -18 39 4 18 8 50 8 72 0 24 7 48 18 59 28 32 21 82 -24 165 l-42 75
17 45 c31 88 18 169 -33 195 l-29 16 20 37 c14 28 18 51 15 87 -6 69 -38 96
-113 96 l-54 0 0 168 c0 182 6 242 25 242 6 0 30 -16 53 -36z m-3351 -108 c62
-65 102 -134 117 -199 l7 -29 -63 44 c-34 23 -97 76 -139 116 -73 69 -76 74
-69 105 16 67 18 69 52 49 16 -9 59 -48 95 -86z m-125 -104 c66 -54 103 -90
194 -193 20 -23 48 -40 75 -48 53 -15 65 -23 107 -77 27 -36 42 -44 99 -60 56
-15 76 -27 118 -69 77 -75 195 -175 222 -188 13 -6 37 -32 53 -59 17 -27 66
-86 109 -131 62 -65 89 -102 125 -178 46 -94 98 -169 117 -169 28 0 61 129 93
365 19 135 32 204 40 212 3 3 38 9 78 13 106 11 110 5 120 -157 6 -101 14
-152 40 -238 29 -94 36 -110 57 -115 21 -5 25 -12 26 -51 1 -25 8 -56 16 -70
7 -13 16 -47 20 -75 4 -28 21 -83 38 -122 34 -77 38 -109 18 -136 -21 -28 -48
-16 -63 28 -17 48 -31 66 -54 66 -27 0 -48 -31 -57 -85 -7 -43 -12 -50 -33
-53 -66 -8 -145 -35 -173 -58 -17 -14 -73 -47 -126 -74 -53 -26 -107 -57 -121
-68 l-25 -20 35 -6 c19 -3 82 -10 140 -16 135 -14 202 -32 253 -66 23 -16 50
-27 60 -25 10 1 40 -5 68 -14 28 -10 59 -15 70 -12 15 4 19 2 15 -8 -4 -10 8
-16 42 -20 150 -20 269 -63 342 -124 l35 -30 -30 -12 c-47 -20 -149 -14 -286
15 -139 29 -213 34 -207 14 3 -7 22 -14 44 -16 21 -2 46 -10 54 -17 30 -27
106 -54 228 -79 68 -14 139 -33 158 -42 46 -22 99 -83 85 -97 -20 -20 -149
-20 -310 -2 -143 17 -160 21 -211 52 -66 39 -98 42 -130 8 -22 -23 -22 -26 -6
-49 10 -17 29 -27 53 -31 21 -3 51 -8 66 -10 17 -3 26 -1 22 5 -9 14 200 13
267 -1 58 -13 128 -44 128 -58 0 -45 -42 -67 -156 -81 -49 -6 -102 -17 -117
-25 -26 -13 -28 -13 -22 4 5 17 -6 19 -157 23 -90 3 -164 5 -166 3 -1 -1 3
-14 9 -29 17 -36 57 -59 170 -95 59 -19 108 -42 125 -58 l29 -27 -45 -9 c-98
-18 -275 15 -391 74 -66 33 -62 18 -44 134 7 39 -6 45 -41 20 -15 -10 -23 -30
-28 -66 -7 -49 -8 -51 -34 -44 -42 10 -235 84 -243 93 -14 16 -81 196 -92 247
-6 30 -14 55 -17 55 -15 -1 -29 -19 -37 -49 -12 -45 -33 -59 -67 -43 -34 15
-33 39 5 114 17 34 47 104 65 156 41 111 57 145 97 195 27 35 29 40 16 64 -9
18 -41 39 -96 64 -44 21 -87 46 -95 57 -8 11 -41 25 -83 35 -87 22 -188 69
-306 144 l-91 58 5 86 c2 47 10 95 16 108 11 19 5 43 -44 174 -69 184 -158
373 -213 454 -97 143 -225 247 -361 293 -39 14 -71 28 -71 33 0 20 67 99 145
170 46 43 98 100 116 127 18 28 36 50 40 50 4 0 41 -26 81 -58z m1914 -190 c6
-4 11 -51 13 -110 1 -82 -2 -108 -16 -132 -16 -28 -16 -33 1 -98 14 -56 15
-73 5 -95 -7 -15 -17 -27 -24 -27 -23 0 -55 47 -76 111 -12 35 -29 72 -37 82
-14 16 -14 24 7 90 47 145 89 205 127 179z m1570 -93 c6 -13 9 -40 7 -60 -4
-29 -11 -38 -36 -47 -27 -10 -34 -10 -44 5 -22 29 -16 81 12 109 29 29 45 28
61 -7z m-3759 -140 c111 -42 192 -115 294 -270 145 -217 198 -381 212 -647 l4
-83 -31 -13 -31 -13 57 -27 c62 -29 158 -109 158 -132 0 -7 -17 -22 -39 -33
-111 -57 -242 -269 -287 -463 -10 -43 -23 -78 -29 -78 -35 0 -171 119 -350
306 -111 115 -213 226 -229 246 -48 65 -68 132 -75 258 l-6 115 -42 0 c-23 0
-44 3 -48 6 -6 7 11 191 21 235 10 41 -25 38 -65 -6 -20 -22 -39 -40 -42 -40
-12 0 4 106 23 158 11 29 35 68 54 87 31 32 32 34 13 40 -12 4 -29 0 -42 -9
-60 -43 -68 -48 -74 -42 -11 11 18 116 49 174 107 204 318 300 505 231z m3789
-105 c35 -83 -54 -145 -206 -146 -127 -1 -147 17 -87 77 25 25 58 41 133 64
54 17 106 35 114 41 19 12 29 4 46 -36z m-2580 -32 c67 -34 93 -78 74 -126
l-10 -27 -59 40 c-69 47 -121 106 -121 138 0 21 1 22 38 9 22 -8 57 -23 78
-34z m808 22 c10 -26 7 -95 -8 -171 -7 -40 -10 -73 -6 -73 12 0 27 23 39 62 7
21 16 40 21 43 4 3 27 -24 50 -60 23 -35 48 -70 57 -77 13 -10 14 -40 9 -208
-7 -196 -22 -416 -33 -457 -3 -13 -9 -23 -13 -23 -15 0 -40 68 -40 107 0 62
-22 122 -93 250 -36 65 -72 143 -80 173 -9 30 -18 123 -21 205 -4 83 -9 161
-12 175 -4 21 1 29 33 47 45 26 88 29 97 7z m-486 -82 c33 -44 37 -113 8 -156
l-18 -29 -23 29 c-63 77 -95 188 -57 196 35 7 64 -5 90 -40z m2254 -132 c20
-6 46 -18 58 -28 20 -16 21 -20 8 -59 -15 -50 -24 -53 -140 -52 -94 1 -118 -6
-118 -31 0 -35 25 -43 79 -25 59 19 108 22 123 7 6 -6 7 -26 2 -54 -4 -23 -7
-49 -5 -55 1 -10 -32 -13 -141 -12 -200 0 -217 4 -233 54 -8 21 -28 59 -45 83
-32 46 -31 60 8 95 28 26 123 56 221 72 109 17 137 17 183 5z m-629 -517 c4
-330 -6 -440 -48 -496 -14 -20 -103 -36 -196 -37 l-46 0 -7 41 c-8 51 -61 109
-99 109 -28 0 -37 16 -37 64 0 31 3 33 58 49 110 31 152 79 152 171 0 51 -6
55 -43 26 -14 -11 -28 -20 -31 -20 -3 0 -6 37 -6 83 l1 82 97 47 c78 39 107
48 150 48 l52 0 3 -167z m567 137 c30 -6 55 -11 56 -13 2 -2 1 -20 -3 -41 -7
-44 -20 -51 -123 -67 -72 -11 -171 0 -218 25 l-23 12 22 28 c44 56 165 79 289
56z m-904 -72 c-8 -52 -29 -85 -62 -100 -32 -15 -36 -9 -36 52 0 63 21 90 70
90 l35 0 -7 -42z m6 -153 c-5 -18 -11 -25 -16 -17 -4 6 -2 21 4 33 15 28 21
20 12 -16z m-2017 -282 c106 -32 338 -159 343 -187 3 -12 -15 -38 -46 -70 -65
-67 -90 -119 -146 -306 -26 -85 -60 -182 -75 -216 -18 -38 -27 -71 -24 -90 3
-16 0 -41 -6 -56 -9 -24 -16 -28 -51 -28 -47 0 -110 24 -110 41 0 7 23 34 50
59 l50 46 0 70 c0 104 -30 135 -98 100 -75 -39 -94 -105 -52 -186 37 -72 23
-77 -58 -20 -41 29 -107 84 -148 122 -71 68 -74 73 -69 107 22 135 54 238 106
344 50 100 86 152 161 233 68 72 63 71 173 37z m979 -76 c-1 -32 -7 -64 -13
-70 -14 -14 -129 -13 -143 1 -12 12 12 71 40 95 23 21 68 36 97 34 18 -2 20
-9 19 -60z m1005 -37 c22 -22 36 -42 31 -45 -5 -3 -29 0 -55 7 -39 11 -45 16
-41 33 3 11 6 26 6 33 0 21 18 13 59 -28z m-2489 -485 c16 -19 3 -55 -19 -55
-51 0 -81 13 -81 35 0 12 3 25 7 28 12 13 81 7 93 -8z m435 -149 c-7 -58 -11
-64 -26 -49 -12 12 -15 86 -4 103 3 5 13 6 21 3 13 -5 15 -16 9 -57z m-389 22
c23 -10 87 -61 142 -112 93 -87 183 -146 221 -146 9 0 48 -21 86 -46 55 -36
76 -44 99 -39 39 7 50 17 86 81 23 40 36 54 53 54 42 -1 105 -38 178 -107 90
-84 127 -113 146 -113 7 0 22 19 32 43 10 23 26 48 34 56 27 22 101 -3 238
-79 87 -48 160 -79 244 -105 66 -20 131 -40 145 -45 14 -4 41 -15 62 -25 46
-22 47 -30 40 -281 -3 -134 -1 -206 8 -243 12 -51 12 -53 -15 -81 l-27 -28 7
-407 c5 -336 4 -406 -7 -403 -26 8 -48 71 -48 136 0 35 -14 143 -31 240 -24
141 -29 193 -25 255 5 54 3 84 -6 100 -9 15 -15 95 -19 252 -6 213 -20 348
-40 385 -13 24 -39 -51 -39 -112 0 -67 21 -296 125 -1346 9 -84 33 -237 54
-340 22 -103 41 -207 43 -232 l3 -45 -100 -12 c-55 -6 -159 -12 -231 -12
l-131 -1 -11 38 c-7 20 -16 84 -22 142 -6 58 -19 195 -30 305 -11 110 -27 286
-36 390 -16 205 -45 405 -71 498 -22 81 -41 62 -45 -46 l-3 -82 -74 90 c-90
109 -121 171 -121 243 0 69 15 102 87 192 66 82 93 128 93 159 0 24 -23 19
-58 -13 -29 -26 -171 -234 -202 -296 -12 -25 -42 -66 -66 -92 -111 -119 -259
-400 -359 -683 -37 -104 -80 -215 -95 -245 -15 -30 -33 -91 -39 -135 -20 -129
-57 -305 -81 -383 -22 -71 -22 -72 -56 -72 -28 0 -36 5 -44 26 -21 55 -10 181
40 458 108 592 222 1042 276 1087 8 6 14 26 14 44 0 18 11 64 24 102 108 300
135 393 118 393 -30 0 -55 -41 -82 -135 -16 -55 -60 -181 -98 -280 -115 -298
-172 -486 -237 -787 -24 -111 -136 -725 -150 -819 -11 -76 -4 -73 -171 -55
-82 9 -177 21 -211 28 l-63 12 0 37 c0 21 14 116 30 212 17 96 30 206 30 245
0 62 14 111 134 473 73 222 154 449 180 505 52 114 61 149 48 183 l-9 24 -20
-20 c-13 -13 -28 -51 -38 -97 -9 -41 -23 -81 -31 -87 -13 -11 -15 15 -12 207
2 195 0 223 -16 253 -27 51 -42 27 -30 -49 6 -33 7 -65 3 -71 -10 -17 -48 38
-55 80 -3 20 -21 81 -40 137 -19 56 -34 109 -34 118 0 10 18 65 41 124 23 59
56 162 75 230 19 68 43 141 55 163 19 38 21 39 57 33 20 -4 56 -15 78 -26z
m678 -47 c16 -17 16 -22 3 -48 -8 -15 -26 -38 -40 -51 -34 -32 -42 -14 -27 59
14 64 32 76 64 40z m100 -82 c43 -39 76 -99 55 -99 -6 0 -27 11 -47 25 -20 14
-44 25 -54 25 -9 0 -20 5 -23 11 -9 14 4 79 16 79 5 0 29 -18 53 -41z m253
-175 c16 -22 8 -34 -23 -34 -34 0 -78 24 -98 54 -9 14 -16 27 -16 30 0 11 126
-35 137 -50z m-172 -961 c10 -44 44 -93 111 -163 184 -194 199 -253 214 -830
7 -274 13 -379 25 -420 39 -140 40 -151 17 -220 -26 -76 -27 -108 -6 -139 15
-21 21 -23 78 -17 82 8 94 0 73 -53 -9 -23 -22 -85 -27 -139 -6 -53 -15 -136
-20 -184 -5 -47 -18 -108 -30 -135 l-21 -49 -77 9 c-42 5 -255 9 -473 9 l-396
0 -15 47 c-10 32 -22 50 -41 59 -22 11 -27 20 -27 50 0 69 -20 112 -81 178
-96 103 -103 148 -21 142 l47 -3 17 51 c9 29 22 112 28 185 14 160 37 265 131
584 155 526 151 514 299 776 51 89 105 190 121 225 32 72 61 86 74 37z m965
-1067 c0 -50 -22 -14 -26 41 l-4 48 15 -30 c8 -16 14 -43 15 -59z m20 -145
c16 -30 12 -53 -7 -49 -22 4 -37 68 -17 68 7 0 18 -9 24 -19z m20 -150 c14
-27 13 -41 -5 -41 -17 0 -34 29 -28 48 7 18 21 15 33 -7z m-2130 -131 c74 -12
164 -26 200 -33 l65 -12 -4 -84 c-1 -47 -7 -94 -11 -107 -11 -28 -48 -33 -164
-23 -75 7 -315 47 -323 54 -2 1 6 50 17 110 11 60 20 110 20 112 0 8 77 1 200
-17z m2089 -57 c13 -25 23 -126 14 -139 -13 -19 -364 -38 -451 -25 -39 6 -74
11 -77 11 -3 0 -5 28 -3 62 3 61 3 62 38 71 82 22 204 35 332 36 121 1 138 -1
147 -16z m-1649 -32 c0 -14 -8 -63 -17 -108 l-17 -83 -41 0 c-63 0 -70 9 -55
70 7 28 12 69 12 90 -1 53 26 71 91 62 22 -3 27 -10 27 -31z m1735 31 c6 -4
11 -37 13 -74 2 -54 0 -68 -12 -68 -23 0 -46 41 -46 81 0 61 16 83 45 61z m39
-249 c70 -6 87 -17 90 -57 1 -23 4 -25 41 -20 27 4 46 1 60 -10 19 -14 19 -17
5 -43 -23 -41 -69 -54 -175 -47 -243 15 -474 84 -499 150 -10 26 56 44 186 51
68 3 134 9 148 13 17 5 34 1 52 -12 16 -11 53 -21 92 -25z m-2110 -22 c17 -6
15 -11 -19 -38 -20 -17 -76 -47 -124 -67 -90 -38 -116 -55 -144 -96 l-17 -24
-2 24 c-5 90 26 145 103 184 42 20 67 26 118 25 37 0 75 -4 85 -8z m113 -12
c37 -14 73 -48 73 -70 0 -16 -26 -29 -61 -29 -9 0 -21 10 -28 23 -6 12 -18 33
-26 46 -22 40 -8 49 42 30z m1565 -94 c199 -77 469 -109 732 -86 84 7 133 8
139 2 6 -6 11 -40 11 -77 1 -53 5 -69 19 -78 24 -15 37 6 37 60 0 22 6 49 14
59 12 17 19 17 92 6 113 -17 184 -39 221 -67 60 -46 64 -82 12 -109 -37 -20
-290 -20 -534 0 -99 8 -279 21 -400 30 -258 17 -380 31 -423 46 -29 10 -32 15
-32 54 0 70 28 185 45 185 3 0 33 -11 67 -25z m-1462 -82 c74 -30 120 -97 120
-173 l0 -40 -222 1 c-209 0 -310 7 -325 22 -13 14 21 87 56 121 87 84 258 117
371 69z m-551 -104 c4 -12 5 -38 2 -58 -5 -27 -11 -36 -26 -36 -16 0 -21 8
-23 44 -2 24 -1 50 2 57 8 21 36 17 45 -7z m2173 -123 c78 -17 128 -41 128
-61 0 -24 -36 -53 -82 -66 -48 -13 -154 -2 -253 26 -50 15 -55 19 -49 38 20
70 114 93 256 63z m-1572 -35 c36 -6 71 -11 78 -11 25 0 11 -18 -30 -36 -39
-18 -66 -19 -368 -16 -438 3 -460 7 -392 64 l28 23 309 -7 c171 -4 339 -11
375 -17z m1898 3 c20 -8 57 -27 81 -41 l44 -26 -24 -13 c-29 -16 -159 -18
-211 -3 -43 11 -50 37 -22 77 19 27 76 30 132 6z m282 -4 c47 -4 198 -5 335
-2 231 5 252 4 268 -13 30 -30 17 -49 -43 -62 -62 -13 -313 -16 -502 -6 l-127
6 -31 39 c-31 38 -32 65 -1 52 9 -3 54 -10 101 -14z"/>
<path d="M1625 9115 c-33 -8 -89 -22 -124 -32 -59 -18 -64 -22 -77 -59 -16
-45 -17 -57 -6 -51 4 3 52 17 107 32 116 31 165 56 189 96 17 29 17 29 -6 28
-13 0 -50 -7 -83 -14z"/>
<path d="M970 8914 c-13 -33 -36 -80 -52 -106 -31 -53 -28 -57 20 -28 60 37
94 118 69 166 l-14 26 -23 -58z"/>
<path d="M1835 8199 c-145 -71 -170 -86 -188 -117 -10 -18 -17 -36 -15 -41 1
-5 37 4 78 20 91 36 188 43 218 16 11 -10 50 -26 88 -37 71 -21 127 -61 108
-80 -5 -5 -77 -27 -159 -49 -164 -43 -208 -59 -265 -97 -40 -26 -83 -82 -95
-121 -5 -20 -3 -23 19 -23 38 0 76 -17 136 -63 52 -39 127 -73 138 -63 12 13
-34 59 -86 85 -62 31 -86 53 -96 89 -9 26 -4 26 99 11 108 -15 275 -13 315 4
l35 15 -28 11 c-16 6 -50 11 -77 11 -63 0 -98 14 -109 42 -11 30 19 64 68 78
48 13 148 12 191 -3 30 -11 36 -18 49 -69 l15 -58 42 0 42 0 -1 48 c-2 40 5
59 36 109 47 78 48 93 2 93 -66 0 -193 51 -337 136 -78 46 -147 84 -153 83 -5
-1 -37 -14 -70 -30z"/>
<path d="M861 7838 c-12 -12 -23 -29 -26 -39 -3 -9 -12 -20 -20 -23 -11 -4
-15 3 -15 29 0 41 -12 45 -28 10 -36 -80 14 -166 111 -193 68 -19 81 40 27
126 -30 47 -33 57 -23 83 13 34 2 38 -26 7z"/>
<path d="M2153 7650 c-67 -14 -97 -39 -117 -102 -8 -27 15 -22 60 11 35 26
115 103 103 100 -2 -1 -23 -5 -46 -9z"/>
<path d="M2482 7503 c2 -12 14 -19 36 -21 28 -3 33 0 30 15 -2 12 -14 19 -36
21 -28 3 -33 0 -30 -15z"/>
<path d="M2315 7430 c-10 -11 -28 -20 -40 -20 -17 0 -24 -8 -29 -32 -10 -52
-42 -76 -136 -104 -179 -54 -198 -67 -229 -148 -31 -83 -31 -177 -1 -216 19
-25 19 -25 34 -5 14 18 25 57 41 141 9 47 57 89 143 124 105 44 128 62 162
131 22 42 36 59 50 59 20 0 50 45 50 75 0 21 -23 19 -45 -5z"/>
<path d="M2081 7034 c-42 -47 -61 -94 -53 -126 5 -19 42 -25 42 -8 0 23 31 21
50 -3 11 -14 36 -36 56 -48 23 -14 43 -38 55 -67 11 -25 36 -67 55 -94 20 -26
39 -60 43 -76 9 -35 31 -39 186 -41 137 -1 148 4 185 79 67 138 144 256 186
288 48 36 68 72 58 104 -5 17 -12 19 -38 14 -209 -43 -402 -60 -568 -51 -155
8 -181 14 -188 45 -9 38 -25 34 -69 -16z m239 -89 c69 -9 198 -16 288 -17
l163 -1 -18 -21 c-34 -39 -58 -55 -108 -70 -112 -34 -221 -30 -339 15 -48 17
-126 80 -126 101 0 10 -9 10 140 -7z m173 -232 c21 -24 31 -69 17 -78 -20 -13
-59 5 -74 34 -13 25 -13 30 2 44 21 22 35 21 55 0z m81 -5 c10 -38 7 -48 -13
-48 -29 0 -45 25 -31 49 14 28 36 27 44 -1z"/>
<path d="M2400 6436 c-64 -18 -114 -43 -141 -72 l-22 -24 29 0 c16 0 46 13 68
30 39 30 41 30 165 30 l126 0 44 -35 c51 -40 103 -49 94 -15 -8 29 -67 77
-110 89 -51 14 -197 12 -253 -3z"/>
<path d="M2436 5289 c-14 -11 -26 -30 -26 -42 1 -42 26 -59 102 -72 40 -7 75
-11 77 -9 2 2 -15 35 -38 74 -46 78 -67 87 -115 49z"/>
<path d="M2515 5050 c-34 -13 -46 -36 -43 -82 3 -40 5 -44 40 -52 66 -16 118
43 88 99 -15 28 -57 45 -85 35z"/>
<path d="M2707 4513 c-10 -9 -9 -53 1 -53 14 0 32 23 32 42 0 18 -20 25 -33
11z"/>
<path d="M2634 4339 c-21 -34 -2 -98 28 -99 12 0 21 48 14 74 -6 26 -32 41
-42 25z"/>
<path d="M2548 4135 c-9 -19 -7 -29 6 -50 23 -36 50 -29 54 13 6 58 -38 85
-60 37z"/>
<path d="M780 5864 c-8 -3 -21 -8 -29 -10 -10 -3 -1 -14 25 -31 21 -15 73 -56
114 -91 41 -35 92 -73 113 -83 20 -11 37 -24 37 -30 0 -7 16 -29 35 -50 19
-22 35 -46 35 -54 0 -27 47 -109 79 -139 l31 -30 0 136 c0 160 -5 189 -36 223
-25 27 -57 34 -48 11 7 -17 -14 -96 -25 -96 -5 0 -21 19 -36 42 -42 63 -124
146 -170 173 -42 25 -100 38 -125 29z"/>
<path d="M1160 5236 c0 -15 36 -36 63 -36 52 0 60 -11 40 -51 -24 -47 -24
-140 0 -167 10 -11 26 -22 36 -25 15 -4 17 4 17 62 0 49 6 78 23 114 27 54 21
70 -36 94 -29 12 -143 19 -143 9z"/>
<path d="M1135 5130 c-28 -9 -55 -34 -55 -51 0 -4 10 -9 22 -11 15 -2 24 -13
30 -35 11 -42 33 -42 58 -1 19 31 36 86 28 93 -10 10 -57 13 -83 5z"/>
</g>
</svg>
