<?xml version="1.0" encoding="UTF-8"?>
<!DOCTYPE svg PUBLIC "-//W3C//DTD SVG 1.1//EN" "http://www.w3.org/Graphics/SVG/1.1/DTD/svg11.dtd">
<!-- Creator: CorelDRAW 2020 (64 Bit) -->
<svg xmlns="http://www.w3.org/2000/svg" xml:space="preserve" width="214.838mm" height="124.686mm" version="1.1" style="shape-rendering:geometricPrecision; text-rendering:geometricPrecision; image-rendering:optimizeQuality; fill-rule:evenodd; clip-rule:evenodd"
viewBox="0 0 26649.51 15466.65"
 xmlns:xlink="http://www.w3.org/1999/xlink"
 xmlns:xodm="http://www.corel.com/coreldraw/odm/2003">
 <defs>
  <style type="text/css">
   <![CDATA[
    .fil0 {fill:#FEFEFE;fill-rule:nonzero}
   ]]>
  </style>
   <clipPath id="id0">
    <path d="M13324.76 15466.65c-7363.09,0 -13324.76,-890.16 -13324.76,-1988.48 0,-1098.32 5961.67,-1988.46 13324.76,-1988.46 7355.5,0 13324.75,890.15 13324.75,1988.46 0,1098.32 -5969.25,1988.48 -13324.75,1988.48l0 0z"/>
   </clipPath>
 </defs>
 <g id="Camada_x0020_1">
  <metadata id="CorelCorpID_0Corel-Layer"/>
  <g style="clip-path:url(#id0)">
   <image x="-45.45" y="11450.6" width="26725.26" height="4057.45" xlink:href="Sem título-1_Images\Sem título-1_ImgID1.png"/>
  </g>
  <polygon class="fil0" points="7110.92,9994.18 7110.92,10376.34 6346.52,10376.34 6346.52,11077.07 5964.27,11077.07 5964.27,9293.45 7110.92,9293.45 7110.92,9675.65 6346.52,9675.65 6346.52,9994.18 "/>
  <polygon class="fil0" points="7365.69,11077.07 7747.95,11077.07 7747.95,9293.45 7365.69,9293.45 "/>
  <polygon class="fil0" points="15833.5,11080.89 16215.76,11080.89 16215.76,9297.27 15833.5,9297.27 "/>
  <polygon class="fil0" points="8384.91,9293.45 9021.93,10376.34 9021.93,9293.45 9404.14,9293.45 9404.14,11077.07 9021.93,11077.07 8384.91,9994.18 8384.91,11077.07 8002.71,11077.07 8002.71,9293.45 "/>
  <path class="fil0" d="M10148.14 10312.67l422.99 0 -211.5 -637.02 -211.5 637.02zm1039.62 764.4l-382.21 0 -118.46 -382.19 -654.87 0 -118.5 382.19 -382.21 0 535.1 -1783.62 586.04 0 535.1 1783.62z"/>
  <polygon class="fil0" points="11697.39,9293.45 12334.41,10376.34 12334.41,9293.45 12716.62,9293.45 12716.62,11077.07 12334.41,11077.07 11697.39,9994.18 11697.39,11077.07 11315.2,11077.07 11315.2,9293.45 "/>
  <path class="fil0" d="M13353.62 10567.44c0,84.98 42.45,127.43 127.39,127.43l636.97 0 0 382.19 -636.97 0c-339.76,0 -509.64,-169.87 -509.64,-509.63l0 -764.36c0,-339.75 169.88,-509.63 509.64,-509.63l636.97 0 0 382.19 -636.97 0c-84.95,0 -127.39,42.45 -127.39,127.43l0 764.36z"/>
  <polygon class="fil0" points="15519.41,9994.18 15519.41,10376.34 14755.01,10376.34 14755.01,10694.87 15519.41,10694.87 15519.41,11077.07 14372.8,11077.07 14372.8,9293.45 15519.41,9293.45 15519.41,9675.65 14755.01,9675.65 14755.01,9994.18 "/>
  <path class="fil0" d="M18312.49 10564.17c0,85.13 47.81,127.49 143.47,127.49l358.64 0c95.66,0 143.47,-42.36 143.47,-127.49l0 -764.45c0,-85.01 -47.81,-127.48 -143.47,-127.48l-358.64 0c-95.66,0 -143.47,42.47 -143.47,127.48l0 764.45zm1075.96 0c0,339.96 -191.29,509.8 -573.86,509.8l-358.64 0c-382.57,0 -573.86,-169.84 -573.86,-509.8l0 -764.45c0,-339.94 191.29,-509.8 573.86,-509.8l358.64 0c382.57,0 573.86,169.85 573.86,509.8l0 764.45z"/>
  <path class="fil0" d="M16793.3 9667.83l0 383.87 422.99 0c93.98,0 140.87,-42.68 140.87,-128.01l0 -127.85c0,-85.36 -46.89,-128 -140.87,-128l-422.99 0zm281.98 767.69l-281.98 0 0 639.74 -422.98 0 0 -1791.29 845.97 0c375.86,0 563.96,170.54 563.96,511.87l0 127.85c0,209.15 -86.56,356.58 -259.5,442.83l259.5 708.74 -423.09 0 -281.88 -639.74z"/>
  <path class="fil0" d="M12938.02 143.51c2461.31,1033.11 860.72,1559.55 860.72,4033.47 0,237.48 0,470.2 0,696.8 0,1438.9 1363.64,2306.17 1872.88,1617.93 1602.16,-2165.17 893.79,145.91 244.58,1164.04 -668.79,952.49 -1811.13,297 -3080.18,546.88 0,-782.91 0,-2282.66 0,-4019.95 0,-870.35 0,-1689.45 0,-2395 0,-321.08 0,-618.51 0,-886.5 0,-239.42 0,-455.33 0,-643.54 0,-36.41 21.75,-83.79 38.38,-116.27 18.2,0.61 46.29,-3.06 63.62,2.15z"/>
  <path class="fil0" d="M12079.71 16.47c55.8,27.7 56.16,78.11 56.16,126.81 0,202.61 0,438 0,700.87 0,257.13 0,540.53 0,845.37 0,731.27 0,1585.83 0,2494.99 0,1774.39 0,3306.18 0,4105.85 0,8.1 -229.26,12.17 -353.28,12.17 -1660.44,0 -3100.33,-739.54 -3960.88,-1863.14 -385.87,-554.49 -608.42,-995.45 -637.47,-1399.25 -32.8,-455.73 180.88,-864.16 684.39,-1335.11 102.39,-83.18 990.71,-1628.04 1047.45,-1239.43 80.28,549.85 -18.48,1342.07 -18.48,1702.64 0,209.82 0,415.54 0,615.8 0,1268.61 1271.58,1600.3 1830.41,1057.28 288.03,-279.98 357.61,-608.01 357.61,-897.34 0,-247.12 0,-501.02 0,-760.12 0,-689.27 0,-1346.94 0,-1942.57 -131.28,7.88 -268.38,17.95 -400.06,30.29 -585.55,18.94 -336.26,-350.53 115.14,-1021.15 523.75,-764.4 760.77,-963.73 997.02,-1156.54 43.9,-32.95 170.28,-132.94 281.99,-77.4z"/>
 </g>
</svg>
